<?xml version="1.0" encoding="utf-8"?>
<!-- Generator: Adobe Illustrator 23.0.3, SVG Export Plug-In . SVG Version: 6.00 Build 0)  -->
<svg version="1.1" id="圖層_1" xmlns="http://www.w3.org/2000/svg" xmlns:xlink="http://www.w3.org/1999/xlink" x="0px" y="0px"
	 viewBox="0 0 20 20" style="enable-background:new 0 0 20 20;" xml:space="preserve">
<style type="text/css">
	.st0{fill-rule:evenodd;clip-rule:evenodd;fill:#333E48;}
</style>
<title>Icon_vive_grey</title>
<desc>Created with Sketch.</desc>
<g id="Icon_vive_grey">
	<g id="Group-3-Copy-10" transform="translate(0.222222, 0.131579)">
		<g id="Clip-2">
		</g>
		<path id="Fill-1" class="st0" d="M18.1,13.7L11.8,2.9c-0.2-0.3-0.6-0.5-1-0.5H8.6c-0.4,0-0.8,0.2-1,0.5L1.4,13.7
			c-0.2,0.3-0.2,0.8,0,1.1l1.1,1.9c0.2,0.3,0.6,0.5,1,0.5H16c0.4,0,0.8-0.2,1-0.5l1.1-1.9C18.3,14.5,18.3,14.1,18.1,13.7 M12.7,14.8
			c-0.9,0.3-2,0.5-3,0.5s-2.1-0.2-3-0.5c-1.1-0.3-1.8-1.5-1.6-2.6c0.4-2.1,1.5-3.9,3-5.2c0.9-0.8,2.2-0.8,3.1,0
			c1.5,1.4,2.6,3.2,3,5.2C14.5,13.3,13.8,14.4,12.7,14.8"/>
	</g>
</g>
</svg>
