<?xml version="1.0" encoding="utf-8"?>
<!-- Generator: Adobe Illustrator 23.0.3, SVG Export Plug-In . SVG Version: 6.00 Build 0)  -->
<svg version="1.1" id="圖層_1" xmlns="http://www.w3.org/2000/svg" xmlns:xlink="http://www.w3.org/1999/xlink" x="0px" y="0px"
	 viewBox="0 0 20 20" style="enable-background:new 0 0 20 20;" xml:space="preserve">
<style type="text/css">
	.st0{fill:#333E48;}
</style>
<title>Icon_vive_grey</title>
<desc>Created with Sketch.</desc>
<g>
	<path class="st0" d="M18,4.9c0-0.3-0.1-0.6-0.3-0.8l0,0c-0.2-0.2-0.3-0.3-0.5-0.4c-1.4-0.6-3.8-0.9-7-0.9s-5.6,0.3-7,0.9
		C3,3.8,2.8,3.9,2.7,4.1C2.4,4.3,2.3,4.6,2.3,4.9V7c0,2.4,2,4.4,4.4,4.4h0.6c0.3,0,0.5-0.1,0.7-0.3l1.1-0.8c0.3-0.3,0.6-0.4,1-0.4
		s0.7,0.1,1,0.4l1.1,0.8c0.2,0.2,0.5,0.3,0.7,0.3h0.6c2.4,0,4.4-2,4.4-4.4V4.9H18z M17.1,7c0,1.9-1.6,3.5-3.5,3.5h-0.7l-1.1-0.9
		c-0.4-0.4-1-0.6-1.6-0.6S9,9.2,8.6,9.6l0,0l-1.1,0.9H6.8c-1.9,0-3.5-1.6-3.5-3.5V4.8l0.1-0.1l0.1-0.1l0,0c0.9-0.4,2.8-0.8,6.6-0.8
		s5.7,0.4,6.6,0.8l0,0l0.1,0.1l0.1,0.1V7H17.1z"/>
	<path class="st0" d="M10.9,4.9H9.4C9.2,4.9,9,5.1,9,5.3c0,0.2,0.2,0.4,0.4,0.4h1.5c0.2,0,0.4-0.2,0.4-0.4
		C11.3,5.1,11.2,4.9,10.9,4.9z"/>
	<g>
		<path class="st0" d="M10.2,17.2c-3.1,0-4.4-2.3-4.4-2.4c-0.1-0.2,0-0.5,0.2-0.7c0.2-0.1,0.5,0,0.7,0.2c0,0.1,1,1.9,3.5,1.9
			s3.5-1.9,3.5-1.9c0.1-0.2,0.4-0.3,0.7-0.2c0.2,0.1,0.3,0.4,0.2,0.7C14.5,14.8,13.3,17.2,10.2,17.2z"/>
	</g>
</g>
</svg>
