<?xml version="1.0" encoding="utf-8"?>
<!-- Generator: Adobe Illustrator 23.0.3, SVG Export Plug-In . SVG Version: 6.00 Build 0)  -->
<svg version="1.1" id="圖層_1" xmlns="http://www.w3.org/2000/svg" xmlns:xlink="http://www.w3.org/1999/xlink" x="0px" y="0px"
	 viewBox="0 0 20 20" style="enable-background:new 0 0 20 20;" xml:space="preserve">
<style type="text/css">
	.st0{fill-rule:evenodd;clip-rule:evenodd;fill:#333E48;}
</style>
<title>Group 3 Copy 6</title>
<desc>Created with Sketch.</desc>
<g id="Title-cards">
	<g id="TC-Subscription-Available" transform="translate(-2005.000000, -958.000000)">
		<g id="Group-3-Copy-6" transform="translate(2005.000000, 958.000000)">
			<g id="Clip-2">
			</g>
			<path id="Fill-1" class="st0" d="M14.3,11c-0.2,0.2-0.5,0.3-0.7,0.3c-0.3,0-0.5,0-0.8,0H7.2c-0.3,0-0.5,0-0.8,0S5.9,11.2,5.7,11
				C5.2,10.7,5,10.2,5,9.6C5,9,5.3,8.5,5.7,8.2C5.9,8.1,6.1,8,6.4,8s0.5,0,0.8,0h5.6c0.3,0,0.5,0,0.8,0s0.5,0.1,0.7,0.3
				C14.8,8.6,15,9.1,15,9.7C15.1,10.2,14.8,10.7,14.3,11 M16.6,5.7c-0.6-0.5-1.3-0.8-2-1c-0.4-0.1-0.9-0.1-1.3-0.2c-0.3,0-0.6,0-1,0
				H7.7c-0.3,0-0.6,0-1,0S5.8,4.6,5.4,4.7c-0.7,0.2-1.4,0.5-2,1c-1.2,1-1.9,2.4-1.9,4c0,1.5,0.7,3,1.9,4c0.6,0.5,1.3,0.8,2,1
				c0.4,0.1,0.9,0.1,1.3,0.2c0.3,0,0.6,0,1,0h4.6c0.3,0,0.6,0,1,0s0.9-0.1,1.3-0.2c0.7-0.2,1.4-0.5,2-1c1.2-1,1.9-2.4,1.9-4
				C18.5,8.1,17.8,6.6,16.6,5.7"/>
		</g>
	</g>
</g>
</svg>
