<?xml version="1.0" encoding="utf-8"?>
<!-- Generator: Adobe Illustrator 23.0.2, SVG Export Plug-In . SVG Version: 6.00 Build 0)  -->
<svg version="1.1" id="圖層_1" xmlns="http://www.w3.org/2000/svg" xmlns:xlink="http://www.w3.org/1999/xlink" x="0px" y="0px"
	 viewBox="0 0 16 16" style="enable-background:new 0 0 16 16;" xml:space="preserve">
<style type="text/css">
	.st0{fill-rule:evenodd;clip-rule:evenodd;fill:#F8CF35;}
	.st1{fill-rule:evenodd;clip-rule:evenodd;fill:none;}
</style>
<title>Icon_rating_yellow_fill</title>
<desc>Created with Sketch.</desc>
<g id="Symbols">
	<g id="Icon_rating_yellow_fill">
		<path id="Path" class="st0" d="M8.2,0.3l2.1,5.3c0.1,0.2,0.2,0.3,0.4,0.3l4.4-0.1c0.4,0,0.6,0.5,0.3,0.8L11.6,10
			c-0.1,0.1-0.2,0.3-0.2,0.5l1.3,4.7c0.1,0.4-0.3,0.8-0.7,0.5L8,13.2c-0.1-0.1-0.3-0.1-0.5,0l-4.1,2.5c-0.4,0.2-0.8-0.1-0.7-0.5
			l1.3-4.7c0.1-0.2,0-0.4-0.2-0.5L0.2,6.6C-0.2,6.4,0,5.8,0.5,5.8l4.4,0.1c0.2,0,0.4-0.1,0.4-0.3l2.1-5.3C7.5-0.1,8-0.1,8.2,0.3z"/>
	</g>
</g>
<rect y="0" class="st1" width="16" height="16"/>
</svg>
