<?xml version="1.0" encoding="UTF-8"?>
<svg width="262px" height="135px" viewBox="0 0 262 135" version="1.1" xmlns="http://www.w3.org/2000/svg" xmlns:xlink="http://www.w3.org/1999/xlink">
    <!-- Generator: Sketch 53.2 (72643) - https://sketchapp.com -->
    <title>Logo_infinity_white</title>
    <desc>Created with Sketch.</desc>
    <defs>
        <polygon id="path-1" points="0 0 266 0 266 138 0 138"></polygon>
    </defs>
    <g id="Logo_infinity_white" stroke="none" stroke-width="1" fill="none" fill-rule="evenodd">
        <g id="Group-3" transform="translate(-1.000000, -1.000000)">
            <mask id="mask-2" fill="white">
                <use xlink:href="#path-1"></use>
            </mask>
            <g id="Clip-2"></g>
            <path d="M206.082007,1 C177.354871,1 152.854616,22.1567164 131.608388,45.4402985 C111.256739,22.9402985 88.6686443,1 59.9303259,1 C26.3836508,1 1,32.4552239 1,68.5 C1,107.567164 25.1536061,136 57.9175254,136 C86.6558438,136 111.144917,114.83209 132.391144,91.5485075 C152.742794,114.059701 175.330888,136 204.069207,136 C237.615882,136 262.999533,104.544776 262.999533,68.5 C263.122537,29.3208955 238.957749,1 206.082007,1 M59.9303259,31.8955224 C66.5278387,31.8955224 73.348996,34.4701493 81.1765535,40.0671642 C90.6814448,46.7835821 100.074514,56.6343284 108.684827,66.1492537 L111.144917,68.9477612 L109.579405,70.738806 C98.5090023,82.8283582 89.4514,91.1007463 80.8410867,96.6977612 C72.3425957,102.294776 64.8505049,105.093284 57.8057032,105.093284 C50.9845459,105.093284 45.1697889,102.41791 40.5850766,96.9328358 C34.9939641,90.0932836 31.8629411,80.0298507 31.8629411,68.5 C31.8629411,58.3134328 35.3294309,48.4626866 41.3678324,41.2985075 C45.0579666,36.9328358 51.2081904,31.8955224 59.9303259,31.8955224 M206.082007,31.8955224 C212.903164,31.8955224 218.717921,34.5820896 223.302634,40.0671642 C229.005568,46.7835821 232.136591,56.858209 232.136591,68.5 C232.136591,78.6865672 228.681284,88.5373134 222.6317,95.6902985 C218.941566,99.9440299 212.802524,105.093284 204.069207,105.093284 C197.471694,105.093284 190.762359,102.529851 182.822979,96.9328358 C173.318088,90.2164179 163.925019,80.3544776 155.314705,70.8507463 L152.854616,68.0522388 L154.420127,66.261194 C165.49053,54.1716418 174.559315,45.8880597 183.158446,40.2910448 C191.545115,34.5820896 199.149028,31.8955224 206.082007,31.8955224" id="Fill-1" fill="#FFFFFF" mask="url(#mask-2)"></path>
        </g>
    </g>
</svg>